<mxfile host="app.diagrams.net" modified="2021-11-20T17:21:43.005Z" agent="5.0 (Windows NT 10.0; Win64; x64) AppleWebKit/537.36 (KHTML, like Gecko) Chrome/96.0.4664.45 Safari/537.36" etag="X0YjF7JIvrwmN4N3aJVh" version="15.0.6" type="github" pages="3">
  <diagram id="a30It_QaZU8UN9rZ9jLV" name="Page-1">
    <mxGraphModel dx="782" dy="524" grid="1" gridSize="10" guides="1" tooltips="1" connect="1" arrows="1" fold="1" page="1" pageScale="1" pageWidth="850" pageHeight="1100" math="0" shadow="0">
      <root>
        <mxCell id="0" />
        <mxCell id="1" parent="0" />
        <mxCell id="jDqqMf6XWkAToaU_76NQ-110" value="" style="group" vertex="1" connectable="0" parent="1">
          <mxGeometry x="75" y="75" width="551.495" height="372.5" as="geometry" />
        </mxCell>
        <mxCell id="_QMskJpGgI7Bd4_K-1zA-3" value="" style="rounded=0;whiteSpace=wrap;html=1;dashed=1;rotation=-90;fillColor=#E6E6E6;dashPattern=1 1;" parent="jDqqMf6XWkAToaU_76NQ-110" vertex="1">
          <mxGeometry x="138.75" y="111.25" width="372.5" height="150" as="geometry" />
        </mxCell>
        <mxCell id="_QMskJpGgI7Bd4_K-1zA-7" value="" style="rounded=0;whiteSpace=wrap;html=1;dashed=1;rotation=-90;fillColor=#E6E6E6;dashPattern=1 2;" parent="jDqqMf6XWkAToaU_76NQ-110" vertex="1">
          <mxGeometry x="376.38" y="105.78" width="243.75" height="106.48" as="geometry" />
        </mxCell>
        <mxCell id="_QMskJpGgI7Bd4_K-1zA-6" value="New Adapter&lt;br&gt;(iSeries)" style="text;html=1;strokeColor=none;fillColor=none;align=left;verticalAlign=middle;whiteSpace=wrap;rounded=0;" parent="jDqqMf6XWkAToaU_76NQ-110" vertex="1">
          <mxGeometry x="255" y="15" width="100" height="20" as="geometry" />
        </mxCell>
        <mxCell id="_QMskJpGgI7Bd4_K-1zA-12" value="eMas&lt;br&gt;(iSeries)" style="text;html=1;strokeColor=none;fillColor=none;align=center;verticalAlign=middle;whiteSpace=wrap;rounded=0;" parent="jDqqMf6XWkAToaU_76NQ-110" vertex="1">
          <mxGeometry x="454.63" y="45" width="56.62" height="20" as="geometry" />
        </mxCell>
        <mxCell id="_QMskJpGgI7Bd4_K-1zA-15" value="" style="rounded=0;whiteSpace=wrap;html=1;rotation=-90;" parent="jDqqMf6XWkAToaU_76NQ-110" vertex="1">
          <mxGeometry x="-49" y="132.13" width="160" height="60" as="geometry" />
        </mxCell>
        <mxCell id="_QMskJpGgI7Bd4_K-1zA-16" value="" style="rounded=0;whiteSpace=wrap;html=1;rotation=-90;" parent="jDqqMf6XWkAToaU_76NQ-110" vertex="1">
          <mxGeometry x="71" y="132.13" width="160" height="60" as="geometry" />
        </mxCell>
        <mxCell id="_QMskJpGgI7Bd4_K-1zA-17" value="" style="rounded=0;whiteSpace=wrap;html=1;" parent="jDqqMf6XWkAToaU_76NQ-110" vertex="1">
          <mxGeometry y="280" width="80" height="45" as="geometry" />
        </mxCell>
        <mxCell id="jDqqMf6XWkAToaU_76NQ-46" style="edgeStyle=orthogonalEdgeStyle;rounded=0;orthogonalLoop=1;jettySize=auto;html=1;exitX=0;exitY=0.5;exitDx=0;exitDy=0;entryX=1;entryY=0.5;entryDx=0;entryDy=0;" edge="1" parent="jDqqMf6XWkAToaU_76NQ-110" source="_QMskJpGgI7Bd4_K-1zA-20" target="_QMskJpGgI7Bd4_K-1zA-17">
          <mxGeometry as="geometry" />
        </mxCell>
        <mxCell id="_QMskJpGgI7Bd4_K-1zA-20" value="" style="rounded=0;whiteSpace=wrap;html=1;" parent="jDqqMf6XWkAToaU_76NQ-110" vertex="1">
          <mxGeometry x="110" y="280" width="80" height="45" as="geometry" />
        </mxCell>
        <mxCell id="_QMskJpGgI7Bd4_K-1zA-21" value="ATM&lt;br&gt;On Us" style="text;html=1;strokeColor=none;fillColor=none;align=center;verticalAlign=middle;whiteSpace=wrap;rounded=0;" parent="jDqqMf6XWkAToaU_76NQ-110" vertex="1">
          <mxGeometry x="11" y="152.13" width="40" height="20" as="geometry" />
        </mxCell>
        <mxCell id="_QMskJpGgI7Bd4_K-1zA-22" value="B24" style="text;html=1;strokeColor=none;fillColor=none;align=center;verticalAlign=middle;whiteSpace=wrap;rounded=0;" parent="jDqqMf6XWkAToaU_76NQ-110" vertex="1">
          <mxGeometry x="131" y="152.13" width="40" height="20" as="geometry" />
        </mxCell>
        <mxCell id="jDqqMf6XWkAToaU_76NQ-44" style="edgeStyle=orthogonalEdgeStyle;rounded=0;orthogonalLoop=1;jettySize=auto;html=1;exitX=0.25;exitY=0;exitDx=0;exitDy=0;entryX=1;entryY=0.5;entryDx=0;entryDy=0;dashed=1;" edge="1" parent="jDqqMf6XWkAToaU_76NQ-110" source="_QMskJpGgI7Bd4_K-1zA-39" target="_QMskJpGgI7Bd4_K-1zA-20">
          <mxGeometry as="geometry" />
        </mxCell>
        <mxCell id="_QMskJpGgI7Bd4_K-1zA-39" value="" style="rounded=0;whiteSpace=wrap;html=1;rotation=-90;" parent="jDqqMf6XWkAToaU_76NQ-110" vertex="1">
          <mxGeometry x="175" y="162.13" width="300" height="60" as="geometry" />
        </mxCell>
        <mxCell id="_QMskJpGgI7Bd4_K-1zA-5" value="New Adapter" style="text;html=1;strokeColor=none;fillColor=none;align=center;verticalAlign=middle;whiteSpace=wrap;rounded=0;rotation=90;" parent="jDqqMf6XWkAToaU_76NQ-110" vertex="1">
          <mxGeometry x="233.75" y="152.13" width="182.5" height="20" as="geometry" />
        </mxCell>
        <mxCell id="jDqqMf6XWkAToaU_76NQ-1" value="SAMS" style="text;html=1;strokeColor=none;fillColor=none;align=center;verticalAlign=middle;whiteSpace=wrap;rounded=0;" vertex="1" parent="jDqqMf6XWkAToaU_76NQ-110">
          <mxGeometry x="20" y="292.5" width="40" height="20" as="geometry" />
        </mxCell>
        <mxCell id="jDqqMf6XWkAToaU_76NQ-2" value="DSP" style="text;html=1;strokeColor=none;fillColor=none;align=center;verticalAlign=middle;whiteSpace=wrap;rounded=0;" vertex="1" parent="jDqqMf6XWkAToaU_76NQ-110">
          <mxGeometry x="130" y="292.5" width="40" height="20" as="geometry" />
        </mxCell>
        <mxCell id="jDqqMf6XWkAToaU_76NQ-59" value="" style="rounded=0;whiteSpace=wrap;html=1;" vertex="1" parent="jDqqMf6XWkAToaU_76NQ-110">
          <mxGeometry x="460.76" y="92.13" width="74.99" height="60" as="geometry" />
        </mxCell>
        <mxCell id="jDqqMf6XWkAToaU_76NQ-66" value="" style="rounded=0;whiteSpace=wrap;html=1;" vertex="1" parent="jDqqMf6XWkAToaU_76NQ-110">
          <mxGeometry x="460.76" y="188" width="74.99" height="60" as="geometry" />
        </mxCell>
        <mxCell id="jDqqMf6XWkAToaU_76NQ-69" value="" style="rounded=0;whiteSpace=wrap;html=1;" vertex="1" parent="jDqqMf6XWkAToaU_76NQ-110">
          <mxGeometry x="460.76" y="292.5" width="74.99" height="60" as="geometry" />
        </mxCell>
        <mxCell id="jDqqMf6XWkAToaU_76NQ-70" value="VE" style="text;html=1;strokeColor=none;fillColor=none;align=center;verticalAlign=middle;whiteSpace=wrap;rounded=0;" vertex="1" parent="jDqqMf6XWkAToaU_76NQ-110">
          <mxGeometry x="478.26" y="113.38" width="40" height="20" as="geometry" />
        </mxCell>
        <mxCell id="jDqqMf6XWkAToaU_76NQ-71" value="HT" style="text;html=1;strokeColor=none;fillColor=none;align=center;verticalAlign=middle;whiteSpace=wrap;rounded=0;" vertex="1" parent="jDqqMf6XWkAToaU_76NQ-110">
          <mxGeometry x="478.26" y="208" width="40" height="20" as="geometry" />
        </mxCell>
        <mxCell id="jDqqMf6XWkAToaU_76NQ-72" value="FRMS" style="text;html=1;strokeColor=none;fillColor=none;align=center;verticalAlign=middle;whiteSpace=wrap;rounded=0;" vertex="1" parent="jDqqMf6XWkAToaU_76NQ-110">
          <mxGeometry x="478.26" y="312.5" width="40" height="20" as="geometry" />
        </mxCell>
        <mxCell id="jDqqMf6XWkAToaU_76NQ-77" value="" style="endArrow=classicThin;endFill=1;endSize=7;html=1;strokeColor=#3399FF;" edge="1" parent="jDqqMf6XWkAToaU_76NQ-110">
          <mxGeometry width="160" as="geometry">
            <mxPoint x="60" y="122.88" as="sourcePoint" />
            <mxPoint x="120" y="122.88" as="targetPoint" />
          </mxGeometry>
        </mxCell>
        <mxCell id="jDqqMf6XWkAToaU_76NQ-78" value="" style="endArrow=classicThin;endFill=1;endSize=7;html=1;strokeColor=#3399FF;" edge="1" parent="jDqqMf6XWkAToaU_76NQ-110">
          <mxGeometry width="160" as="geometry">
            <mxPoint x="185" y="122.88" as="sourcePoint" />
            <mxPoint x="285" y="123" as="targetPoint" />
          </mxGeometry>
        </mxCell>
        <mxCell id="jDqqMf6XWkAToaU_76NQ-82" value="" style="endArrow=classicThin;endFill=1;endSize=7;html=1;strokeColor=#3399FF;" edge="1" parent="jDqqMf6XWkAToaU_76NQ-110">
          <mxGeometry width="160" as="geometry">
            <mxPoint x="355" y="122.88" as="sourcePoint" />
            <mxPoint x="458" y="123" as="targetPoint" />
          </mxGeometry>
        </mxCell>
        <mxCell id="jDqqMf6XWkAToaU_76NQ-84" value="" style="endArrow=classicThin;endFill=1;endSize=7;html=1;strokeColor=#3399FF;" edge="1" parent="jDqqMf6XWkAToaU_76NQ-110">
          <mxGeometry width="160" as="geometry">
            <mxPoint x="355" y="212.88" as="sourcePoint" />
            <mxPoint x="458" y="213" as="targetPoint" />
          </mxGeometry>
        </mxCell>
        <mxCell id="jDqqMf6XWkAToaU_76NQ-85" value="" style="endArrow=classicThin;endFill=1;endSize=7;html=1;strokeColor=#3399FF;" edge="1" parent="jDqqMf6XWkAToaU_76NQ-110">
          <mxGeometry width="160" as="geometry">
            <mxPoint x="458" y="143" as="sourcePoint" />
            <mxPoint x="355" y="142.88" as="targetPoint" />
          </mxGeometry>
        </mxCell>
        <mxCell id="jDqqMf6XWkAToaU_76NQ-86" value="" style="endArrow=classicThin;endFill=1;endSize=7;html=1;strokeColor=#3399FF;" edge="1" parent="jDqqMf6XWkAToaU_76NQ-110">
          <mxGeometry width="160" as="geometry">
            <mxPoint x="458" y="233" as="sourcePoint" />
            <mxPoint x="355" y="232.88" as="targetPoint" />
          </mxGeometry>
        </mxCell>
        <mxCell id="jDqqMf6XWkAToaU_76NQ-87" value="" style="endArrow=classicThin;endFill=1;endSize=7;html=1;strokeColor=#3399FF;" edge="1" parent="jDqqMf6XWkAToaU_76NQ-110">
          <mxGeometry width="160" as="geometry">
            <mxPoint x="285" y="143" as="sourcePoint" />
            <mxPoint x="185" y="142.88" as="targetPoint" />
          </mxGeometry>
        </mxCell>
        <mxCell id="jDqqMf6XWkAToaU_76NQ-88" value="" style="endArrow=classicThin;endFill=1;endSize=7;html=1;strokeColor=#3399FF;" edge="1" parent="jDqqMf6XWkAToaU_76NQ-110">
          <mxGeometry width="160" as="geometry">
            <mxPoint x="120" y="142.88" as="sourcePoint" />
            <mxPoint x="60" y="142.88" as="targetPoint" />
          </mxGeometry>
        </mxCell>
        <mxCell id="jDqqMf6XWkAToaU_76NQ-89" value="" style="endArrow=classicThin;endFill=1;endSize=7;html=1;strokeColor=#3399FF;" edge="1" parent="jDqqMf6XWkAToaU_76NQ-110">
          <mxGeometry width="160" as="geometry">
            <mxPoint x="355" y="312.88" as="sourcePoint" />
            <mxPoint x="458" y="313" as="targetPoint" />
          </mxGeometry>
        </mxCell>
        <mxCell id="jDqqMf6XWkAToaU_76NQ-90" value="" style="endArrow=classicThin;endFill=1;endSize=7;html=1;strokeColor=#3399FF;" edge="1" parent="jDqqMf6XWkAToaU_76NQ-110">
          <mxGeometry width="160" as="geometry">
            <mxPoint x="458" y="333" as="sourcePoint" />
            <mxPoint x="355" y="332.88" as="targetPoint" />
          </mxGeometry>
        </mxCell>
        <mxCell id="jDqqMf6XWkAToaU_76NQ-91" value="&lt;font style=&quot;font-size: 10px&quot;&gt;1. Req&lt;/font&gt;" style="text;html=1;strokeColor=none;fillColor=none;align=center;verticalAlign=middle;whiteSpace=wrap;rounded=0;" vertex="1" parent="jDqqMf6XWkAToaU_76NQ-110">
          <mxGeometry x="71" y="93.38" width="40" height="20" as="geometry" />
        </mxCell>
        <mxCell id="jDqqMf6XWkAToaU_76NQ-92" value="&lt;font style=&quot;font-size: 10px&quot;&gt;2. Req&lt;/font&gt;" style="text;html=1;strokeColor=none;fillColor=none;align=center;verticalAlign=middle;whiteSpace=wrap;rounded=0;" vertex="1" parent="jDqqMf6XWkAToaU_76NQ-110">
          <mxGeometry x="193.75" y="93.38" width="40" height="20" as="geometry" />
        </mxCell>
        <mxCell id="jDqqMf6XWkAToaU_76NQ-93" value="&lt;font style=&quot;font-size: 10px&quot;&gt;3. Req&lt;/font&gt;" style="text;html=1;strokeColor=none;fillColor=none;align=center;verticalAlign=middle;whiteSpace=wrap;rounded=0;" vertex="1" parent="jDqqMf6XWkAToaU_76NQ-110">
          <mxGeometry x="405" y="105.78" width="40" height="20" as="geometry" />
        </mxCell>
        <mxCell id="jDqqMf6XWkAToaU_76NQ-94" value="&lt;font style=&quot;font-size: 10px&quot;&gt;4 Resp&lt;/font&gt;" style="text;html=1;strokeColor=none;fillColor=none;align=center;verticalAlign=middle;whiteSpace=wrap;rounded=0;" vertex="1" parent="jDqqMf6XWkAToaU_76NQ-110">
          <mxGeometry x="405" y="125.78" width="40" height="20" as="geometry" />
        </mxCell>
        <mxCell id="jDqqMf6XWkAToaU_76NQ-97" value="&lt;font style=&quot;font-size: 10px&quot;&gt;7. Req&lt;/font&gt;" style="text;html=1;strokeColor=none;fillColor=none;align=center;verticalAlign=middle;whiteSpace=wrap;rounded=0;" vertex="1" parent="jDqqMf6XWkAToaU_76NQ-110">
          <mxGeometry x="405" y="195.77999999999997" width="40" height="20" as="geometry" />
        </mxCell>
        <mxCell id="jDqqMf6XWkAToaU_76NQ-98" value="&lt;font style=&quot;font-size: 10px&quot;&gt;8. Resp&lt;/font&gt;" style="text;html=1;strokeColor=none;fillColor=none;align=center;verticalAlign=middle;whiteSpace=wrap;rounded=0;" vertex="1" parent="jDqqMf6XWkAToaU_76NQ-110">
          <mxGeometry x="405" y="215.77999999999997" width="40" height="20" as="geometry" />
        </mxCell>
        <mxCell id="jDqqMf6XWkAToaU_76NQ-99" value="&lt;font style=&quot;font-size: 10px&quot;&gt;5. Req&lt;/font&gt;" style="text;html=1;strokeColor=none;fillColor=none;align=center;verticalAlign=middle;whiteSpace=wrap;rounded=0;" vertex="1" parent="jDqqMf6XWkAToaU_76NQ-110">
          <mxGeometry x="405" y="295.78" width="40" height="20" as="geometry" />
        </mxCell>
        <mxCell id="jDqqMf6XWkAToaU_76NQ-100" value="&lt;font style=&quot;font-size: 10px&quot;&gt;6. Resp&lt;/font&gt;" style="text;html=1;strokeColor=none;fillColor=none;align=center;verticalAlign=middle;whiteSpace=wrap;rounded=0;" vertex="1" parent="jDqqMf6XWkAToaU_76NQ-110">
          <mxGeometry x="405" y="315.78" width="40" height="20" as="geometry" />
        </mxCell>
        <mxCell id="jDqqMf6XWkAToaU_76NQ-101" value="*" style="text;html=1;strokeColor=none;fillColor=none;align=center;verticalAlign=middle;whiteSpace=wrap;rounded=0;fontSize=30;fontStyle=1" vertex="1" parent="jDqqMf6XWkAToaU_76NQ-110">
          <mxGeometry x="205" y="285" width="40" height="20" as="geometry" />
        </mxCell>
        <mxCell id="jDqqMf6XWkAToaU_76NQ-105" value="&lt;font style=&quot;font-size: 10px&quot;&gt;9. Resp&lt;/font&gt;" style="text;html=1;strokeColor=none;fillColor=none;align=center;verticalAlign=middle;whiteSpace=wrap;rounded=0;" vertex="1" parent="jDqqMf6XWkAToaU_76NQ-110">
          <mxGeometry x="193.75" y="123.38" width="40" height="20" as="geometry" />
        </mxCell>
        <mxCell id="jDqqMf6XWkAToaU_76NQ-108" value="&lt;font style=&quot;font-size: 10px&quot;&gt;10. Resp&lt;/font&gt;" style="text;html=1;strokeColor=none;fillColor=none;align=center;verticalAlign=middle;whiteSpace=wrap;rounded=0;" vertex="1" parent="jDqqMf6XWkAToaU_76NQ-110">
          <mxGeometry x="65" y="123.38" width="48.75" height="20" as="geometry" />
        </mxCell>
      </root>
    </mxGraphModel>
  </diagram>
  <diagram id="IFsKflA11DQL7l47XjBM" name="Page-2">
    <mxGraphModel dx="1117" dy="749" grid="1" gridSize="10" guides="1" tooltips="1" connect="1" arrows="1" fold="1" page="1" pageScale="1" pageWidth="850" pageHeight="1100" math="0" shadow="0">
      <root>
        <mxCell id="NU0HpdTUqvN4lH4DwTzJ-0" />
        <mxCell id="NU0HpdTUqvN4lH4DwTzJ-1" parent="NU0HpdTUqvN4lH4DwTzJ-0" />
        <mxCell id="NU0HpdTUqvN4lH4DwTzJ-3" value="" style="rounded=0;whiteSpace=wrap;html=1;dashed=1;rotation=-90;fillColor=#E6E6E6;dashPattern=1 1;" vertex="1" parent="NU0HpdTUqvN4lH4DwTzJ-1">
          <mxGeometry x="176.88" y="223.13" width="446.25" height="150" as="geometry" />
        </mxCell>
        <mxCell id="NU0HpdTUqvN4lH4DwTzJ-4" value="" style="rounded=0;whiteSpace=wrap;html=1;dashed=1;rotation=-90;fillColor=#E6E6E6;dashPattern=1 2;" vertex="1" parent="NU0HpdTUqvN4lH4DwTzJ-1">
          <mxGeometry x="451.38" y="180.78" width="243.75" height="106.48" as="geometry" />
        </mxCell>
        <mxCell id="NU0HpdTUqvN4lH4DwTzJ-5" value="New Adapter&lt;br&gt;(iSeries)" style="text;html=1;strokeColor=none;fillColor=none;align=left;verticalAlign=middle;whiteSpace=wrap;rounded=0;" vertex="1" parent="NU0HpdTUqvN4lH4DwTzJ-1">
          <mxGeometry x="330" y="90" width="100" height="20" as="geometry" />
        </mxCell>
        <mxCell id="NU0HpdTUqvN4lH4DwTzJ-6" value="eMas&lt;br&gt;(iSeries)" style="text;html=1;strokeColor=none;fillColor=none;align=center;verticalAlign=middle;whiteSpace=wrap;rounded=0;" vertex="1" parent="NU0HpdTUqvN4lH4DwTzJ-1">
          <mxGeometry x="529.63" y="120" width="56.62" height="20" as="geometry" />
        </mxCell>
        <mxCell id="NU0HpdTUqvN4lH4DwTzJ-7" value="" style="rounded=0;whiteSpace=wrap;html=1;rotation=-90;" vertex="1" parent="NU0HpdTUqvN4lH4DwTzJ-1">
          <mxGeometry x="26" y="207.13" width="160" height="60" as="geometry" />
        </mxCell>
        <mxCell id="NU0HpdTUqvN4lH4DwTzJ-54" style="edgeStyle=none;rounded=0;jumpSize=0;orthogonalLoop=1;jettySize=auto;html=0;exitX=0.414;exitY=-0.06;exitDx=0;exitDy=0;entryX=0;entryY=0.25;entryDx=0;entryDy=0;labelBackgroundColor=none;fontSize=30;fontColor=none;endArrow=classicThin;endFill=1;endSize=7;sourcePerimeterSpacing=2;targetPerimeterSpacing=7;strokeWidth=1;verticalAlign=middle;strokeColor=#3399FF;exitPerimeter=0;" edge="1" parent="NU0HpdTUqvN4lH4DwTzJ-1" source="NU0HpdTUqvN4lH4DwTzJ-46" target="NU0HpdTUqvN4lH4DwTzJ-8">
          <mxGeometry relative="1" as="geometry" />
        </mxCell>
        <mxCell id="NU0HpdTUqvN4lH4DwTzJ-55" style="edgeStyle=none;rounded=0;jumpSize=0;orthogonalLoop=1;jettySize=auto;html=0;exitX=0;exitY=0.75;exitDx=0;exitDy=0;labelBackgroundColor=none;fontSize=30;fontColor=none;endArrow=classicThin;endFill=1;endSize=7;sourcePerimeterSpacing=7;targetPerimeterSpacing=2;strokeColor=#3399FF;strokeWidth=1;verticalAlign=middle;" edge="1" parent="NU0HpdTUqvN4lH4DwTzJ-1" source="NU0HpdTUqvN4lH4DwTzJ-8">
          <mxGeometry relative="1" as="geometry">
            <mxPoint x="241" y="350" as="targetPoint" />
          </mxGeometry>
        </mxCell>
        <mxCell id="NU0HpdTUqvN4lH4DwTzJ-8" value="" style="rounded=0;whiteSpace=wrap;html=1;rotation=-90;" vertex="1" parent="NU0HpdTUqvN4lH4DwTzJ-1">
          <mxGeometry x="146" y="207.13" width="160" height="60" as="geometry" />
        </mxCell>
        <mxCell id="NU0HpdTUqvN4lH4DwTzJ-9" value="" style="rounded=0;whiteSpace=wrap;html=1;" vertex="1" parent="NU0HpdTUqvN4lH4DwTzJ-1">
          <mxGeometry x="71" y="450" width="80" height="45" as="geometry" />
        </mxCell>
        <mxCell id="NU0HpdTUqvN4lH4DwTzJ-10" style="edgeStyle=orthogonalEdgeStyle;rounded=0;orthogonalLoop=1;jettySize=auto;html=1;exitX=0;exitY=0.5;exitDx=0;exitDy=0;entryX=1;entryY=0.5;entryDx=0;entryDy=0;" edge="1" parent="NU0HpdTUqvN4lH4DwTzJ-1" source="NU0HpdTUqvN4lH4DwTzJ-11" target="NU0HpdTUqvN4lH4DwTzJ-9">
          <mxGeometry x="71" y="122" as="geometry" />
        </mxCell>
        <mxCell id="NU0HpdTUqvN4lH4DwTzJ-11" value="" style="rounded=0;whiteSpace=wrap;html=1;" vertex="1" parent="NU0HpdTUqvN4lH4DwTzJ-1">
          <mxGeometry x="181" y="450" width="80" height="45" as="geometry" />
        </mxCell>
        <mxCell id="NU0HpdTUqvN4lH4DwTzJ-12" value="ATM&lt;br&gt;On Us" style="text;html=1;strokeColor=none;fillColor=none;align=center;verticalAlign=middle;whiteSpace=wrap;rounded=0;" vertex="1" parent="NU0HpdTUqvN4lH4DwTzJ-1">
          <mxGeometry x="86" y="227.13" width="40" height="20" as="geometry" />
        </mxCell>
        <mxCell id="NU0HpdTUqvN4lH4DwTzJ-13" value="B24" style="text;html=1;strokeColor=none;fillColor=none;align=center;verticalAlign=middle;whiteSpace=wrap;rounded=0;" vertex="1" parent="NU0HpdTUqvN4lH4DwTzJ-1">
          <mxGeometry x="206" y="227.13" width="40" height="20" as="geometry" />
        </mxCell>
        <mxCell id="NU0HpdTUqvN4lH4DwTzJ-14" style="edgeStyle=orthogonalEdgeStyle;rounded=0;orthogonalLoop=1;jettySize=auto;html=1;exitX=0.25;exitY=0;exitDx=0;exitDy=0;entryX=1;entryY=0.5;entryDx=0;entryDy=0;dashed=1;" edge="1" parent="NU0HpdTUqvN4lH4DwTzJ-1" source="NU0HpdTUqvN4lH4DwTzJ-15" target="NU0HpdTUqvN4lH4DwTzJ-11">
          <mxGeometry x="75" y="75" as="geometry" />
        </mxCell>
        <mxCell id="NU0HpdTUqvN4lH4DwTzJ-15" value="" style="rounded=0;whiteSpace=wrap;html=1;rotation=-90;" vertex="1" parent="NU0HpdTUqvN4lH4DwTzJ-1">
          <mxGeometry x="250" y="237.13" width="300" height="60" as="geometry" />
        </mxCell>
        <mxCell id="NU0HpdTUqvN4lH4DwTzJ-16" value="New Adapter" style="text;html=1;strokeColor=none;fillColor=none;align=center;verticalAlign=middle;whiteSpace=wrap;rounded=0;rotation=90;" vertex="1" parent="NU0HpdTUqvN4lH4DwTzJ-1">
          <mxGeometry x="308.75" y="227.13" width="182.5" height="20" as="geometry" />
        </mxCell>
        <mxCell id="NU0HpdTUqvN4lH4DwTzJ-17" value="SAMS" style="text;html=1;strokeColor=none;fillColor=none;align=center;verticalAlign=middle;whiteSpace=wrap;rounded=0;" vertex="1" parent="NU0HpdTUqvN4lH4DwTzJ-1">
          <mxGeometry x="91" y="462.5" width="40" height="20" as="geometry" />
        </mxCell>
        <mxCell id="NU0HpdTUqvN4lH4DwTzJ-18" value="DSP" style="text;html=1;strokeColor=none;fillColor=none;align=center;verticalAlign=middle;whiteSpace=wrap;rounded=0;" vertex="1" parent="NU0HpdTUqvN4lH4DwTzJ-1">
          <mxGeometry x="201" y="462.5" width="40" height="20" as="geometry" />
        </mxCell>
        <mxCell id="NU0HpdTUqvN4lH4DwTzJ-19" value="" style="rounded=0;whiteSpace=wrap;html=1;" vertex="1" parent="NU0HpdTUqvN4lH4DwTzJ-1">
          <mxGeometry x="535.76" y="167.13" width="74.99" height="60" as="geometry" />
        </mxCell>
        <mxCell id="NU0HpdTUqvN4lH4DwTzJ-20" value="" style="rounded=0;whiteSpace=wrap;html=1;" vertex="1" parent="NU0HpdTUqvN4lH4DwTzJ-1">
          <mxGeometry x="535.76" y="263" width="74.99" height="60" as="geometry" />
        </mxCell>
        <mxCell id="NU0HpdTUqvN4lH4DwTzJ-21" value="" style="rounded=0;whiteSpace=wrap;html=1;" vertex="1" parent="NU0HpdTUqvN4lH4DwTzJ-1">
          <mxGeometry x="535.76" y="367.5" width="74.99" height="60" as="geometry" />
        </mxCell>
        <mxCell id="NU0HpdTUqvN4lH4DwTzJ-22" value="VE" style="text;html=1;strokeColor=none;fillColor=none;align=center;verticalAlign=middle;whiteSpace=wrap;rounded=0;" vertex="1" parent="NU0HpdTUqvN4lH4DwTzJ-1">
          <mxGeometry x="553.26" y="188.38" width="40" height="20" as="geometry" />
        </mxCell>
        <mxCell id="NU0HpdTUqvN4lH4DwTzJ-23" value="HT" style="text;html=1;strokeColor=none;fillColor=none;align=center;verticalAlign=middle;whiteSpace=wrap;rounded=0;" vertex="1" parent="NU0HpdTUqvN4lH4DwTzJ-1">
          <mxGeometry x="553.26" y="283" width="40" height="20" as="geometry" />
        </mxCell>
        <mxCell id="NU0HpdTUqvN4lH4DwTzJ-24" value="FRMS" style="text;html=1;strokeColor=none;fillColor=none;align=center;verticalAlign=middle;whiteSpace=wrap;rounded=0;" vertex="1" parent="NU0HpdTUqvN4lH4DwTzJ-1">
          <mxGeometry x="553.26" y="387.5" width="40" height="20" as="geometry" />
        </mxCell>
        <mxCell id="NU0HpdTUqvN4lH4DwTzJ-25" value="" style="endArrow=classicThin;endFill=1;endSize=7;html=1;strokeColor=#3399FF;" edge="1" parent="NU0HpdTUqvN4lH4DwTzJ-1">
          <mxGeometry x="75" y="75" width="160" as="geometry">
            <mxPoint x="135" y="197.88" as="sourcePoint" />
            <mxPoint x="195" y="197.88" as="targetPoint" />
          </mxGeometry>
        </mxCell>
        <mxCell id="NU0HpdTUqvN4lH4DwTzJ-26" value="" style="endArrow=classicThin;endFill=1;endSize=7;html=1;strokeColor=#3399FF;" edge="1" parent="NU0HpdTUqvN4lH4DwTzJ-1">
          <mxGeometry x="75" y="75" width="160" as="geometry">
            <mxPoint x="260" y="197.88" as="sourcePoint" />
            <mxPoint x="360" y="198" as="targetPoint" />
          </mxGeometry>
        </mxCell>
        <mxCell id="NU0HpdTUqvN4lH4DwTzJ-27" value="" style="endArrow=classicThin;endFill=1;endSize=7;html=1;strokeColor=#3399FF;" edge="1" parent="NU0HpdTUqvN4lH4DwTzJ-1">
          <mxGeometry x="75" y="75" width="160" as="geometry">
            <mxPoint x="430" y="197.88" as="sourcePoint" />
            <mxPoint x="533" y="198" as="targetPoint" />
          </mxGeometry>
        </mxCell>
        <mxCell id="NU0HpdTUqvN4lH4DwTzJ-28" value="" style="endArrow=classicThin;endFill=1;endSize=7;html=1;strokeColor=#3399FF;" edge="1" parent="NU0HpdTUqvN4lH4DwTzJ-1">
          <mxGeometry x="75" y="75" width="160" as="geometry">
            <mxPoint x="430" y="287.88" as="sourcePoint" />
            <mxPoint x="533" y="288" as="targetPoint" />
          </mxGeometry>
        </mxCell>
        <mxCell id="NU0HpdTUqvN4lH4DwTzJ-29" value="" style="endArrow=classicThin;endFill=1;endSize=7;html=1;strokeColor=#3399FF;" edge="1" parent="NU0HpdTUqvN4lH4DwTzJ-1">
          <mxGeometry x="75" y="75" width="160" as="geometry">
            <mxPoint x="533" y="218" as="sourcePoint" />
            <mxPoint x="430" y="217.88" as="targetPoint" />
          </mxGeometry>
        </mxCell>
        <mxCell id="NU0HpdTUqvN4lH4DwTzJ-30" value="" style="endArrow=classicThin;endFill=1;endSize=7;html=1;strokeColor=#3399FF;" edge="1" parent="NU0HpdTUqvN4lH4DwTzJ-1">
          <mxGeometry x="75" y="75" width="160" as="geometry">
            <mxPoint x="533" y="308" as="sourcePoint" />
            <mxPoint x="430" y="307.88" as="targetPoint" />
          </mxGeometry>
        </mxCell>
        <mxCell id="NU0HpdTUqvN4lH4DwTzJ-31" value="" style="endArrow=classicThin;endFill=1;endSize=7;html=1;strokeColor=#3399FF;" edge="1" parent="NU0HpdTUqvN4lH4DwTzJ-1">
          <mxGeometry x="75" y="75" width="160" as="geometry">
            <mxPoint x="360" y="218" as="sourcePoint" />
            <mxPoint x="260" y="217.88" as="targetPoint" />
          </mxGeometry>
        </mxCell>
        <mxCell id="NU0HpdTUqvN4lH4DwTzJ-32" value="" style="endArrow=classicThin;endFill=1;endSize=7;html=1;strokeColor=#3399FF;" edge="1" parent="NU0HpdTUqvN4lH4DwTzJ-1">
          <mxGeometry x="75" y="75" width="160" as="geometry">
            <mxPoint x="195" y="217.88" as="sourcePoint" />
            <mxPoint x="135" y="217.88" as="targetPoint" />
          </mxGeometry>
        </mxCell>
        <mxCell id="NU0HpdTUqvN4lH4DwTzJ-33" value="" style="endArrow=classicThin;endFill=1;endSize=7;html=1;strokeColor=#3399FF;" edge="1" parent="NU0HpdTUqvN4lH4DwTzJ-1">
          <mxGeometry x="75" y="75" width="160" as="geometry">
            <mxPoint x="430" y="387.88" as="sourcePoint" />
            <mxPoint x="533" y="388" as="targetPoint" />
          </mxGeometry>
        </mxCell>
        <mxCell id="NU0HpdTUqvN4lH4DwTzJ-34" value="" style="endArrow=classicThin;endFill=1;endSize=7;html=1;strokeColor=#3399FF;" edge="1" parent="NU0HpdTUqvN4lH4DwTzJ-1">
          <mxGeometry x="75" y="75" width="160" as="geometry">
            <mxPoint x="533" y="408" as="sourcePoint" />
            <mxPoint x="430" y="407.88" as="targetPoint" />
          </mxGeometry>
        </mxCell>
        <mxCell id="NU0HpdTUqvN4lH4DwTzJ-35" value="&lt;font style=&quot;font-size: 10px&quot;&gt;1. Req&lt;/font&gt;" style="text;html=1;strokeColor=none;fillColor=none;align=center;verticalAlign=middle;whiteSpace=wrap;rounded=0;" vertex="1" parent="NU0HpdTUqvN4lH4DwTzJ-1">
          <mxGeometry x="146" y="168.38" width="40" height="20" as="geometry" />
        </mxCell>
        <mxCell id="NU0HpdTUqvN4lH4DwTzJ-36" value="&lt;font style=&quot;font-size: 10px&quot;&gt;2. Req&lt;/font&gt;" style="text;html=1;strokeColor=none;fillColor=none;align=center;verticalAlign=middle;whiteSpace=wrap;rounded=0;" vertex="1" parent="NU0HpdTUqvN4lH4DwTzJ-1">
          <mxGeometry x="268.75" y="168.38" width="40" height="20" as="geometry" />
        </mxCell>
        <mxCell id="NU0HpdTUqvN4lH4DwTzJ-37" value="&lt;font style=&quot;font-size: 10px&quot;&gt;3. Req&lt;/font&gt;" style="text;html=1;strokeColor=none;fillColor=none;align=center;verticalAlign=middle;whiteSpace=wrap;rounded=0;" vertex="1" parent="NU0HpdTUqvN4lH4DwTzJ-1">
          <mxGeometry x="480" y="180.78" width="40" height="20" as="geometry" />
        </mxCell>
        <mxCell id="NU0HpdTUqvN4lH4DwTzJ-38" value="&lt;font style=&quot;font-size: 10px&quot;&gt;4 Resp&lt;/font&gt;" style="text;html=1;strokeColor=none;fillColor=none;align=center;verticalAlign=middle;whiteSpace=wrap;rounded=0;" vertex="1" parent="NU0HpdTUqvN4lH4DwTzJ-1">
          <mxGeometry x="480" y="200.78" width="40" height="20" as="geometry" />
        </mxCell>
        <mxCell id="NU0HpdTUqvN4lH4DwTzJ-39" value="&lt;font style=&quot;font-size: 10px&quot;&gt;7. Req&lt;/font&gt;" style="text;html=1;strokeColor=none;fillColor=none;align=center;verticalAlign=middle;whiteSpace=wrap;rounded=0;" vertex="1" parent="NU0HpdTUqvN4lH4DwTzJ-1">
          <mxGeometry x="480" y="270.78" width="40" height="20" as="geometry" />
        </mxCell>
        <mxCell id="NU0HpdTUqvN4lH4DwTzJ-40" value="&lt;font style=&quot;font-size: 10px&quot;&gt;8. Resp&lt;/font&gt;" style="text;html=1;strokeColor=none;fillColor=none;align=center;verticalAlign=middle;whiteSpace=wrap;rounded=0;" vertex="1" parent="NU0HpdTUqvN4lH4DwTzJ-1">
          <mxGeometry x="480" y="290.78" width="40" height="20" as="geometry" />
        </mxCell>
        <mxCell id="NU0HpdTUqvN4lH4DwTzJ-41" value="&lt;font style=&quot;font-size: 10px&quot;&gt;5. Req&lt;/font&gt;" style="text;html=1;strokeColor=none;fillColor=none;align=center;verticalAlign=middle;whiteSpace=wrap;rounded=0;" vertex="1" parent="NU0HpdTUqvN4lH4DwTzJ-1">
          <mxGeometry x="480" y="370.78" width="40" height="20" as="geometry" />
        </mxCell>
        <mxCell id="NU0HpdTUqvN4lH4DwTzJ-42" value="&lt;font style=&quot;font-size: 10px&quot;&gt;6. Resp&lt;/font&gt;" style="text;html=1;strokeColor=none;fillColor=none;align=center;verticalAlign=middle;whiteSpace=wrap;rounded=0;" vertex="1" parent="NU0HpdTUqvN4lH4DwTzJ-1">
          <mxGeometry x="480" y="390.78" width="40" height="20" as="geometry" />
        </mxCell>
        <mxCell id="NU0HpdTUqvN4lH4DwTzJ-43" value="*" style="text;html=1;strokeColor=none;fillColor=none;align=center;verticalAlign=middle;whiteSpace=wrap;rounded=0;fontSize=30;fontStyle=1" vertex="1" parent="NU0HpdTUqvN4lH4DwTzJ-1">
          <mxGeometry x="280" y="442.5" width="40" height="20" as="geometry" />
        </mxCell>
        <mxCell id="NU0HpdTUqvN4lH4DwTzJ-44" value="&lt;font style=&quot;font-size: 10px&quot;&gt;9. Resp&lt;/font&gt;" style="text;html=1;strokeColor=none;fillColor=none;align=center;verticalAlign=middle;whiteSpace=wrap;rounded=0;" vertex="1" parent="NU0HpdTUqvN4lH4DwTzJ-1">
          <mxGeometry x="268.75" y="198.38" width="40" height="20" as="geometry" />
        </mxCell>
        <mxCell id="NU0HpdTUqvN4lH4DwTzJ-45" value="&lt;font style=&quot;font-size: 10px&quot;&gt;12. Resp&lt;/font&gt;" style="text;html=1;strokeColor=none;fillColor=none;align=center;verticalAlign=middle;whiteSpace=wrap;rounded=0;" vertex="1" parent="NU0HpdTUqvN4lH4DwTzJ-1">
          <mxGeometry x="140" y="198.38" width="48.75" height="20" as="geometry" />
        </mxCell>
        <mxCell id="NU0HpdTUqvN4lH4DwTzJ-46" value="" style="rounded=0;whiteSpace=wrap;html=1;fontSize=30;" vertex="1" parent="NU0HpdTUqvN4lH4DwTzJ-1">
          <mxGeometry x="161" y="357.5" width="120" height="70" as="geometry" />
        </mxCell>
        <mxCell id="NU0HpdTUqvN4lH4DwTzJ-47" value="Prima / Bersama / Link / BSM / Mantap" style="text;html=1;strokeColor=none;fillColor=none;align=center;verticalAlign=middle;whiteSpace=wrap;rounded=0;" vertex="1" parent="NU0HpdTUqvN4lH4DwTzJ-1">
          <mxGeometry x="166" y="382.5" width="110" height="20" as="geometry" />
        </mxCell>
        <mxCell id="NU0HpdTUqvN4lH4DwTzJ-57" value="&lt;font style=&quot;font-size: 10px&quot;&gt;11. Resp&lt;/font&gt;" style="text;html=1;strokeColor=none;fillColor=none;align=center;verticalAlign=middle;whiteSpace=wrap;rounded=0;" vertex="1" parent="NU0HpdTUqvN4lH4DwTzJ-1">
          <mxGeometry x="160" y="330" width="46" height="20" as="geometry" />
        </mxCell>
        <mxCell id="NU0HpdTUqvN4lH4DwTzJ-58" value="&lt;font style=&quot;font-size: 10px&quot;&gt;10. Req&lt;/font&gt;" style="text;html=1;strokeColor=none;fillColor=none;align=center;verticalAlign=middle;whiteSpace=wrap;rounded=0;" vertex="1" parent="NU0HpdTUqvN4lH4DwTzJ-1">
          <mxGeometry x="250" y="330" width="40" height="20" as="geometry" />
        </mxCell>
      </root>
    </mxGraphModel>
  </diagram>
  <diagram id="U6sSxW0YwA4zH4IeYlxl" name="Page-3">
    <mxGraphModel dx="782" dy="524" grid="1" gridSize="10" guides="1" tooltips="1" connect="1" arrows="1" fold="1" page="1" pageScale="1" pageWidth="850" pageHeight="1100" math="0" shadow="0">
      <root>
        <mxCell id="3ujkk3ylrdmF9PnqI7pi-0" />
        <mxCell id="3ujkk3ylrdmF9PnqI7pi-1" parent="3ujkk3ylrdmF9PnqI7pi-0" />
      </root>
    </mxGraphModel>
  </diagram>
</mxfile>
